<svg width="699" height="239" viewBox="0 0 699 239" fill="none" xmlns="http://www.w3.org/2000/svg">
<path d="M126.222 44.4497L171.997 0.652365H148.383L99.0208 49.2041V0.652365H81.2686V107.689H99.0208V70.4849L113.857 56.6469L150.33 107.689H172.679L126.222 44.4497Z" fill="#E9E7DB"/>
<path d="M378.45 0.0889606H360.688V107.887H378.45V0.0889606Z" fill="#E9E7DB"/>
<path d="M465.274 0.652365V79.8157L413.876 0.652365H396.183V107.689H413.213V29.386L464.187 107.689H482.305V0.652365H465.274Z" fill="#E9E7DB"/>
<path d="M517.285 0.652365H499.533V107.689H517.285V0.652365Z" fill="#E9E7DB"/>
<path d="M517.285 129.366H499.533V236.403H517.285V129.366Z" fill="#E9E7DB"/>
<path d="M680.909 0.652365V79.8157L629.501 0.652365H611.808V107.689H628.838V29.386L679.812 107.689H697.93V0.652365H680.909Z" fill="#E9E7DB"/>
<path d="M369.841 193.475L369.713 195.363C369.47 199.207 368.64 202.99 367.252 206.582C365.988 209.846 364.097 212.831 361.687 215.369C359.298 217.834 356.432 219.788 353.265 221.112C349.693 222.55 345.868 223.256 342.017 223.188C336.851 223.329 331.727 222.22 327.082 219.955C323.054 217.884 319.565 214.902 316.891 211.247C314.109 207.322 312.096 202.905 310.961 198.23C309.628 192.95 308.964 187.524 308.984 182.079C308.983 176.996 309.648 171.935 310.961 167.025C312.141 162.472 314.151 158.176 316.891 154.353C319.55 150.707 323.018 147.726 327.023 145.645C331.628 143.378 336.717 142.268 341.849 142.413C348.081 142.257 354.206 144.046 359.374 147.533C364.217 150.914 367.281 155.885 368.714 162.735L369.06 164.336H386.734L386.407 162.033C385.715 156.657 383.957 151.472 381.238 146.782C378.702 142.487 375.343 138.734 371.354 135.741C367.286 132.751 362.726 130.497 357.881 129.079C352.724 127.561 347.373 126.805 341.997 126.835C334.478 126.702 327.021 128.22 320.153 131.283C313.985 134.093 308.522 138.243 304.16 143.431C299.839 148.734 296.577 154.817 294.553 161.351C292.345 168.387 291.245 175.723 291.291 183.097C291.241 190.422 292.264 197.714 294.325 204.743C296.208 211.201 299.352 217.222 303.577 222.456C307.788 227.552 313.114 231.61 319.145 234.317C325.999 237.298 333.417 238.765 340.89 238.617C354.54 238.617 365.492 234.792 373.439 227.24C381.386 219.688 386.052 209.132 387.465 195.709L387.692 193.475H369.841Z" fill="#E9E7DB"/>
<path d="M464.632 129.287V173.568H413.975V129.287H396.223V236.324H413.975V189.156H464.632V236.324H482.374V129.287H464.632Z" fill="#E9E7DB"/>
<path d="M585.171 129.287L565.115 209.893L545.05 129.287H527.13L555.873 236.324H558.532H571.688H574.357L603.091 129.287H585.171Z" fill="#E9E7DB"/>
<path d="M629.106 220.736V189.156H694.332V173.568H629.106V144.874H698.227V129.287H611.363V236.324H698.661V220.736H629.106Z" fill="#E9E7DB"/>
<path d="M267.054 107.521L241.493 64.9102C246.924 63.8398 251.923 61.2045 255.875 57.329C261.618 51.5367 264.523 43.4909 264.523 33.2607C264.523 23.0304 261.608 15.0044 255.875 9.26159C250.142 3.51881 241.671 0.652365 230.709 0.652365H183.265V108.322H201.056V65.9481H220.825L244.933 107.521H267.054ZM226.093 50.2913H201.096V16.3091H226.064C233.358 16.3091 238.686 17.772 241.879 20.6582C245.071 23.5444 246.653 27.6662 246.653 33.3002C246.653 38.9343 245.081 43.1153 241.869 46.0213C238.656 48.9273 233.348 50.4099 226.093 50.2913Z" fill="#E9E7DB"/>
<path d="M287.436 235.523L261.865 192.892C267.296 191.84 272.301 189.226 276.267 185.37C282 179.578 284.906 171.532 284.906 161.302C284.906 151.072 282 143.046 276.267 137.303C270.534 131.56 262.053 128.654 251.101 128.654H203.617V236.324H221.409V193.95H241.178L265.285 235.523H287.436ZM246.485 178.293H221.488V144.311H246.456C253.74 144.311 259.078 145.774 262.271 148.66C265.463 151.546 267.035 155.658 267.035 161.302C267.035 166.946 265.473 171.107 262.261 174.023C259.048 176.939 253.701 178.372 246.485 178.293Z" fill="#E9E7DB"/>
<path d="M45.6956 0.622707L46.091 94.6422H18.9487L18.5533 0.622707H0.771484V107.68H1.06801H63.4775V95.0376V0.622707H45.6956Z" fill="#E9E7DB"/>
<path d="M90.1152 128.545V223.86H85.5585L71.8688 128.842H71.76H54.2055H53.8694H37.0661H36.1963L22.5066 223.86H17.9499V128.545H0V236.61H0.306413H17.9499H20.678H36.5225H38.6773L52.367 141.593H55.7079L69.3977 236.61H74.4387H87.397H90.1152H108.065V223.86V128.545H90.1152Z" fill="#E9E7DB"/>
<path d="M343.143 0H279.834V0.355835H279.409V107.739H297.25V65.9777H325.253V107.739H343.044V15.8149H343.104L343.143 0ZM297.25 15.8149H325.253V49.3424H297.25V15.8149Z" fill="#E9E7DB"/>
<path d="M188.415 128.743H125.156V129.099H124.721V236.482H142.512V194.721H170.515V236.472H188.306V144.548H188.356L188.415 128.743ZM142.522 144.558H170.525V178.056H142.522V144.558Z" fill="#E9E7DB"/>
<path d="M595.657 0H532.398V0.355835H531.963V107.739H549.755V65.9777H577.767V107.739H595.559V15.8149H595.618L595.657 0ZM549.755 15.8149H577.767V49.3424H549.755V15.8149Z" fill="#E9E7DB"/>
</svg>
